<?xml version="1.0" encoding="utf-8"?>
<!-- Generator: Adobe Illustrator 17.0.0, SVG Export Plug-In . SVG Version: 6.00 Build 0)  -->
<!DOCTYPE svg PUBLIC "-//W3C//DTD SVG 1.1//EN" "http://www.w3.org/Graphics/SVG/1.1/DTD/svg11.dtd">
<svg version="1.1" id="Layer_1" xmlns="http://www.w3.org/2000/svg" xmlns:xlink="http://www.w3.org/1999/xlink" x="0px" y="0px"
	 width="595.28px" height="841.89px" viewBox="0 0 595.28 841.89" enable-background="new 0 0 595.28 841.89" xml:space="preserve">
<path fill="#333333" d="M280.683,68.21c-6.343,5.72-10.211,13.206-10.211,21.421c0.376,18.039,3.162,36.032,3.407,54.068
	c0.503,16.801-5.843,32.582-13.563,47.978c-2.572,4.257-5.351,8.419-8.134,12.586l-8.189-1.31
	c-7.373-1.17-12.161-6.858-10.691-12.707c1.287-5.126,6.962-8.679,13.294-8.71l2.98,0.263l-6.649-44.102
	c-2.169-19.635-14.923-36.859-33.714-48.07c-3.23-1.927-6.652-3.686-10.213-5.244v156.633h45.522
	c3.405,14.672,13.576,27.46,27.866,36.238c3.403,1.858,6.247,4.321,8.294,7.181c2.048-2.86,4.892-5.323,8.295-7.181
	c14.295-8.774,24.463-21.566,27.866-36.238h45.516V84.39c-3.555,1.554-6.976,3.313-10.206,5.244
	c-18.786,11.207-31.543,28.428-33.721,48.063l-6.645,44.106l2.98-0.26c6.332,0.027,12.007,3.58,13.299,8.71
	c1.472,5.849-3.321,11.535-10.691,12.707l-8.19,1.31c-2.786-4.17-5.563-8.328-8.139-12.586
	c-7.714-15.396-14.063-31.177-13.563-47.983c0.245-18.032,3.03-36.032,3.405-54.064C290.893,81.416,287.027,73.93,280.683,68.21z
	 M212.616,106.946c8.806,8.218,14.721,18.446,16.483,29.692l5.478,36.371c-6.976,2.753-12.259,7.818-14.252,13.938h-7.706v-80.001
	H212.616z M348.751,106.946v80.001h-7.706c-1.989-6.116-7.28-11.185-14.252-13.938l5.479-36.371
	C334.027,125.392,339.945,115.164,348.751,106.946z M280.683,180.065c3.66,9.502,8.693,18.519,14.944,26.908
	c-5.946,1.436-11.126,4.227-14.944,7.982c-3.814-3.755-8.991-6.546-14.94-7.982C271.996,198.589,277.028,189.568,280.683,180.065z
	 M212.616,197.762h7.706c2.433,7.463,9.767,13.363,19.092,15.419l6.544,1.181c-1.753,5.045-2.714,10.358-2.714,15.841h-30.628
	V197.762z M341.045,197.762h7.706V230.2H318.12c0-5.48-0.96-10.793-2.713-15.842l6.544-1.18
	C331.279,211.125,338.615,205.226,341.045,197.762L341.045,197.762z M259.25,216.857c8.259,0.932,14.625,6.53,14.625,13.347h-17.017
	C256.858,225.565,257.723,221.102,259.25,216.857z M302.113,216.857c1.531,4.245,2.396,8.712,2.396,13.347h-17.023
	C287.49,223.387,293.857,217.789,302.113,216.857z M258.4,241.018h15.475v22.766C266.366,257.546,260.911,249.717,258.4,241.018z
	 M287.49,241.018h15.473c-2.505,8.698-7.958,16.527-15.473,22.766V241.018z"/>
</svg>
